<?xml version="1.0" ?><!DOCTYPE svg  PUBLIC '-//W3C//DTD SVG 1.1//EN'  'http://www.w3.org/Graphics/SVG/1.1/DTD/svg11.dtd'><svg enable-background="new 0 0 24 24" height="24px" id="Layer_1" version="1.1" viewBox="0 0 24 24" width="24px" xml:space="preserve" xmlns="http://www.w3.org/2000/svg" xmlns:xlink="http://www.w3.org/1999/xlink"><g><path d="M23,2h-9c-0.6,0-1,0.4-1,1v1H1C0.4,4,0,4.2,0,4.8v13C0,18.3,0.4,19,1,19h8v2H6c-0.6,0-1,0.2-1,0.8V24h17c1.6,0,2-0.4,2-1V3   C24,2.4,23.6,2,23,2z M13,23H6v-1h7V23z M13,21h-2v-2h2V21z M13,17H2v-1h11V17z M13,15H2V6h11V15z M22,22h-7V4h7V22z"/><rect height="1" width="5" x="16" y="6"/><rect height="1" width="5" x="16" y="8"/><rect height="1" width="5" x="16" y="10"/><circle cx="18.5" cy="19.5" r="0.5"/></g></svg>